<?xml version="1.0" standalone="no"?>
<!DOCTYPE svg PUBLIC "-//W3C//DTD SVG 20010904//EN"
 "http://www.w3.org/TR/2001/REC-SVG-20010904/DTD/svg10.dtd">
<svg version="1.0" xmlns="http://www.w3.org/2000/svg"
 width="844.000000pt" height="271.000000pt" viewBox="0 0 844.000000 271.000000"
 preserveAspectRatio="xMidYMid meet">

<g transform="translate(0.000000,271.000000) scale(0.100000,-0.100000)"
fill="#000000" stroke="none">
<path d="M0 1355 l0 -1355 4220 0 4220 0 0 1355 0 1355 -4220 0 -4220 0 0
-1355z m3921 1148 l34 -88 9 85 c5 47 10 87 12 88 1 2 37 -2 79 -9 l76 -12 -7
-68 c-4 -38 -4 -69 0 -69 4 0 18 27 33 60 14 33 31 60 37 60 7 0 36 -7 64 -15
58 -17 60 -23 41 -104 -5 -24 -8 -46 -5 -48 2 -2 19 21 37 51 19 31 40 56 48
56 8 0 44 -18 80 -39 248 -147 356 -404 323 -764 -17 -188 -20 -194 -48 -105
-26 81 -54 114 -84 98 -10 -5 -35 -37 -55 -70 -59 -97 -63 -90 -81 133 -14
184 -32 263 -79 343 -23 39 -29 44 -41 33 -11 -12 -8 -24 18 -76 40 -81 47
-166 22 -263 -19 -76 -15 -125 19 -202 l17 -37 -43 15 c-74 27 -176 44 -255
44 -76 0 -79 -1 -276 -95 -110 -52 -204 -95 -208 -95 -5 0 -6 24 -2 53 4 35
13 58 28 70 18 14 18 16 2 11 -11 -4 -22 -1 -27 7 -13 21 -11 25 14 38 l22 11
-23 -6 c-22 -5 -22 -4 -16 53 6 48 14 66 46 103 37 41 45 46 110 57 53 9 77
18 99 39 16 15 27 29 25 31 -2 3 -44 -3 -93 -13 -81 -16 -91 -20 -130 -61 -24
-23 -45 -43 -48 -43 -11 0 -4 137 9 186 42 160 170 276 321 291 49 5 55 8 55
28 0 21 -3 23 -42 18 -24 -3 -61 -12 -83 -20 -73 -26 -75 -26 -75 -9 0 25 -46
111 -80 149 -16 19 -55 52 -85 72 -30 21 -55 42 -55 45 0 10 171 64 216 69 6
0 26 -38 45 -86z m625 -1434 c24 -16 45 -33 48 -38 3 -5 -10 -21 -29 -35 l-34
-26 -37 25 c-70 48 -172 27 -220 -44 -23 -36 -26 -48 -22 -101 4 -52 9 -65 38
-95 56 -58 141 -71 204 -30 23 15 26 24 26 71 l0 54 -65 0 -65 0 0 45 0 45
115 0 115 0 0 -108 c0 -104 -1 -108 -29 -139 -73 -80 -190 -104 -286 -59 -96
45 -146 123 -146 228 -1 124 83 225 204 247 60 10 134 -6 183 -40z m-1771
-196 c48 -126 90 -234 92 -240 4 -9 -9 -13 -45 -13 l-50 0 -22 65 -22 65 -81
0 -82 0 -23 -65 -24 -65 -49 0 -49 0 19 48 c10 26 51 134 92 240 l74 192 41 0
41 0 88 -227z m265 32 l0 -195 125 0 125 0 0 -45 0 -45 -170 0 -170 0 0 240 0
240 45 0 45 0 0 -195z m486 105 l67 -90 64 90 c65 90 65 90 109 90 l44 0 0
-240 0 -240 -45 0 -45 0 0 162 0 161 -60 -83 c-33 -46 -62 -86 -65 -88 -2 -2
-31 33 -64 79 l-61 83 0 -157 0 -157 -50 0 -50 0 0 240 0 240 45 0 45 0 66
-90z m534 -150 l0 -240 -50 0 -50 0 0 240 0 240 50 0 50 0 0 -240z m750 160
l0 -80 100 0 100 0 0 80 0 80 45 0 45 0 0 -240 0 -240 -45 0 -45 0 0 115 0
115 -100 0 -100 0 0 -115 0 -115 -45 0 -45 0 0 240 0 240 45 0 45 0 0 -80z
m690 35 l0 -45 -55 0 -55 0 0 -195 0 -195 -50 0 -50 0 0 195 0 195 -60 0 -60
0 0 45 0 45 165 0 165 0 0 -45z m189 23 c8 -13 32 -47 53 -76 l39 -53 53 73
52 73 58 3 58 3 -45 -63 c-25 -35 -63 -90 -86 -122 l-41 -59 0 -119 0 -118
-50 0 -50 0 0 121 0 121 -62 86 c-34 48 -73 102 -86 120 l-24 32 58 0 c51 0
61 -3 73 -22z m-1839 -623 c0 -11 -12 -15 -45 -15 l-45 0 0 -125 c0 -104 -2
-125 -15 -125 -13 0 -15 21 -15 125 l0 125 -45 0 c-33 0 -45 4 -45 15 0 12 18
15 105 15 87 0 105 -3 105 -15z m250 0 c0 -12 -14 -15 -70 -15 l-70 0 0 -45 0
-44 62 -3 c38 -2 63 -8 66 -15 3 -10 -14 -13 -62 -13 l-66 0 0 -50 0 -50 70 0
c56 0 70 -3 70 -15 0 -12 -17 -15 -90 -15 l-90 0 0 140 0 140 90 0 c73 0 90
-3 90 -15z m257 -107 c70 -164 68 -158 50 -158 -9 0 -21 16 -28 35 l-13 35
-78 0 -78 0 -14 -35 c-8 -19 -22 -35 -31 -35 -9 0 -14 3 -12 8 4 6 50 114 104
240 25 60 44 43 100 -90z m227 7 c27 -64 53 -112 57 -108 4 4 28 55 53 113 34
80 49 106 65 108 20 3 21 0 21 -137 0 -117 -2 -141 -15 -141 -12 0 -15 21 -17
111 l-3 111 -46 -108 c-25 -61 -52 -110 -60 -112 -11 -2 -31 33 -67 115 l-51
118 -1 -117 c0 -98 -3 -118 -15 -118 -13 0 -15 22 -15 140 0 139 0 140 23 140
19 0 29 -18 71 -115z"/>
<path d="M4110 2264 c0 -19 5 -24 24 -24 13 0 31 -3 39 -6 8 -3 17 2 21 12 8
22 5 25 -44 34 -37 7 -40 6 -40 -16z"/>
<path d="M4226 2253 c-14 -14 -4 -32 25 -47 17 -9 35 -13 40 -10 17 10 9 31
-18 44 -40 20 -40 20 -47 13z"/>
<path d="M4317 2186 c-7 -17 37 -61 52 -51 18 11 12 32 -14 49 -30 19 -31 20
-38 2z"/>
<path d="M2627 902 c-9 -26 -17 -50 -17 -54 0 -5 18 -8 39 -8 l39 0 -20 53
c-11 28 -21 53 -22 54 -1 2 -10 -19 -19 -45z"/>
<path d="M4255 365 c-15 -36 -25 -68 -22 -71 2 -3 30 -4 60 -2 l55 3 -25 60
c-14 33 -28 64 -32 68 -4 4 -20 -22 -36 -58z"/>
</g>
</svg>
