<?xml version="1.0" standalone="no"?>
<!DOCTYPE svg PUBLIC "-//W3C//DTD SVG 20010904//EN"
 "http://www.w3.org/TR/2001/REC-SVG-20010904/DTD/svg10.dtd">
<svg version="1.0" xmlns="http://www.w3.org/2000/svg"
 width="836.000000pt" height="245.000000pt" viewBox="0 0 836.000000 245.000000"
 preserveAspectRatio="xMidYMid meet">

<g transform="translate(0.000000,245.000000) scale(0.100000,-0.100000)"
fill="#000000" stroke="none">
<path d="M3783 2405 c-34 -7 -83 -23 -110 -35 l-48 -22 25 -16 c104 -71 164
-139 191 -217 7 -22 14 -41 14 -42 1 -2 23 6 51 16 27 10 70 22 97 25 45 7 47
6 47 -17 0 -22 -5 -25 -59 -31 -155 -18 -285 -142 -320 -304 -12 -57 -15 -172
-5 -172 4 0 23 19 44 43 35 39 44 44 121 60 113 23 118 23 85 -12 -28 -29 -89
-51 -144 -51 -38 0 -112 -88 -112 -134 0 -17 -3 -41 -6 -54 -6 -21 -4 -23 22
-17 l29 5 -27 -11 c-30 -11 -32 -17 -20 -37 7 -9 15 -10 35 -3 36 14 34 5 -2
-13 -24 -13 -29 -22 -34 -68 -2 -29 -3 -55 -2 -57 2 -2 96 41 209 94 l206 98
107 -5 c77 -4 130 -13 184 -30 l76 -25 -23 58 c-28 69 -30 105 -8 191 22 86
13 175 -25 253 -22 43 -27 63 -19 72 15 19 27 7 59 -60 39 -82 57 -175 68
-344 12 -190 17 -197 75 -103 43 69 69 88 93 68 20 -16 50 -85 59 -135 l7 -38
8 28 c4 16 13 79 19 140 36 363 -85 653 -327 780 -39 20 -75 37 -80 37 -6 0
-22 -22 -37 -50 -35 -63 -52 -75 -42 -29 3 19 9 51 12 71 l6 37 -53 15 c-29 9
-56 16 -61 16 -4 0 -24 -30 -43 -67 l-35 -68 2 75 3 74 -35 7 c-19 4 -54 10
-77 14 l-43 6 -1 -48 c0 -26 -3 -66 -7 -88 l-7 -40 -34 88 c-19 48 -37 87 -40
86 -3 0 -34 -7 -68 -14z m380 -305 c13 -11 -4 -42 -20 -36 -8 3 -26 6 -39 6
-19 0 -24 5 -24 24 0 23 3 24 38 19 20 -3 41 -9 45 -13z m80 -30 c27 -13 35
-34 17 -45 -13 -8 -70 23 -70 39 0 15 10 27 19 23 3 -2 18 -9 34 -17z m82 -56
c26 -17 32 -38 14 -49 -15 -10 -59 34 -52 51 7 18 8 17 38 -2z"/>
<path d="M4282 925 c-94 -41 -152 -127 -152 -224 0 -80 15 -122 60 -174 95
-107 255 -114 358 -14 l32 31 0 113 0 113 -110 0 -110 0 0 -45 0 -45 71 0 70
0 -3 -51 c-4 -61 -29 -87 -96 -96 -171 -23 -255 198 -112 294 47 33 125 32
174 -2 l37 -25 34 27 c32 25 33 29 18 45 -9 10 -38 29 -66 43 -59 29 -151 34
-205 10z"/>
<path d="M2496 723 c-44 -115 -85 -223 -93 -240 l-13 -33 49 0 49 0 23 65 23
65 82 0 82 0 23 -65 23 -65 49 0 c27 0 47 4 45 9 -1 4 -43 112 -92 240 l-89
231 -41 0 -41 0 -79 -207z m158 -41 c7 -21 4 -22 -38 -22 l-45 0 21 62 21 62
17 -39 c9 -22 20 -50 24 -63z"/>
<path d="M2920 690 l0 -240 170 0 170 0 0 40 0 40 -125 0 -125 0 0 200 0 200
-45 0 -45 0 0 -240z"/>
<path d="M3350 690 l0 -240 40 0 40 0 2 161 3 160 64 -86 64 -86 63 87 64 88
0 -162 0 -162 45 0 45 0 0 240 0 240 -44 0 c-43 0 -45 -2 -92 -67 -26 -38 -55
-78 -65 -91 l-17 -22 -66 90 c-64 87 -67 90 -106 90 l-40 0 0 -240z"/>
<path d="M3940 690 l0 -240 40 0 40 0 0 240 0 240 -40 0 -40 0 0 -240z"/>
<path d="M4690 690 l0 -240 45 0 45 0 0 115 0 115 100 0 100 0 0 -115 0 -115
45 0 45 0 0 240 0 240 -45 0 -45 0 0 -80 0 -80 -100 0 -100 0 0 80 0 80 -45 0
-45 0 0 -240z"/>
<path d="M5150 885 l0 -45 60 0 60 0 0 -195 0 -195 40 0 40 0 0 195 0 195 60
0 60 0 0 45 0 45 -160 0 -160 0 0 -45z"/>
<path d="M5620 805 l90 -125 0 -115 0 -115 45 0 45 0 0 120 0 119 85 121 85
120 -55 0 -54 0 -53 -74 c-29 -41 -55 -75 -58 -75 -3 0 -27 33 -55 74 l-50 75
-57 0 -58 0 90 -125z"/>
<path d="M3610 285 c0 -11 12 -15 45 -15 l45 0 0 -125 c0 -104 2 -125 15 -125
13 0 15 21 15 125 l0 125 45 0 c33 0 45 4 45 15 0 12 -18 15 -105 15 -87 0
-105 -3 -105 -15z"/>
<path d="M3900 160 l0 -140 85 0 c69 0 85 3 85 15 0 12 -15 15 -76 15 l-75 0
3 48 3 47 68 3 c37 2 67 7 67 12 0 5 -30 10 -67 12 l-68 3 -3 48 -3 47 75 0
c61 0 76 3 76 15 0 12 -16 15 -85 15 l-85 0 0 -140z"/>
<path d="M4207 218 c-20 -46 -47 -109 -61 -140 -21 -48 -23 -58 -10 -58 8 0
22 16 30 35 l14 35 79 0 79 0 12 -35 c7 -20 18 -35 27 -35 18 0 19 -4 -50 157
-36 85 -57 123 -68 123 -11 0 -28 -27 -52 -82z m83 -24 c17 -36 30 -68 30 -70
0 -2 -27 -4 -60 -4 -33 0 -60 3 -60 8 0 10 52 132 57 132 2 0 17 -30 33 -66z"/>
<path d="M4460 161 c0 -117 2 -141 15 -141 12 0 15 22 17 116 l3 116 49 -116
c33 -80 54 -116 63 -114 8 2 35 50 60 108 25 58 49 109 54 114 5 6 9 -39 9
-107 0 -71 4 -117 10 -117 6 0 10 53 10 140 0 131 -1 140 -19 140 -14 0 -30
-25 -66 -107 -26 -60 -50 -112 -54 -116 -4 -4 -30 43 -57 105 -40 91 -54 114
-72 116 -22 3 -22 2 -22 -137z"/>
</g>
</svg>
