<svg width="232" height="34" viewBox="0 0 232 34" fill="none" xmlns="http://www.w3.org/2000/svg">
    <path fill-rule="evenodd" clip-rule="evenodd" d="M227.35 10.04C226.67 6.59 223.64 4 220 4C217.11 4 214.6 5.64 213.35 8.04C210.34 8.36 208 10.91 208 14C208 17.31 210.69 20 214 20H227C229.76 20 232 17.76 232 15C232 12.36 229.95 10.22 227.35 10.04ZM227 18H214C211.79 18 210 16.21 210 14C210 11.95 211.53 10.24 213.56 10.03L214.63 9.92L215.13 8.97C216.08 7.14 217.94 6 220 6C222.62 6 224.88 7.86 225.39 10.43L225.69 11.93L227.22 12.04C228.78 12.14 230 13.45 230 15C230 16.65 228.65 18 227 18ZM218.55 10H221.45V13H224L220 17L216 13H218.55V10Z" fill="#2D9CDB" />
    <path d="M1.76758 15.2334H5.13672V16H0.825195V8.89062H1.76758V15.2334ZM5.9852 13.3096C5.9852 12.792 6.08611 12.3265 6.28793 11.9131C6.49301 11.4997 6.77621 11.1807 7.13754 10.9561C7.50212 10.7314 7.91716 10.6191 8.38266 10.6191C9.10206 10.6191 9.68311 10.8682 10.1258 11.3662C10.5718 11.8643 10.7948 12.5267 10.7948 13.3535V13.417C10.7948 13.9313 10.6955 14.3936 10.4969 14.8037C10.3016 15.2106 10.02 15.528 9.65219 15.7559C9.2876 15.9837 8.86768 16.0977 8.39242 16.0977C7.67628 16.0977 7.09522 15.8486 6.64926 15.3506C6.20655 14.8525 5.9852 14.1934 5.9852 13.373V13.3096ZM6.8934 13.417C6.8934 14.0029 7.02849 14.4733 7.29867 14.8281C7.57211 15.1829 7.93669 15.3604 8.39242 15.3604C8.85141 15.3604 9.21599 15.1813 9.48617 14.8232C9.75635 14.4619 9.89145 13.9574 9.89145 13.3096C9.89145 12.7301 9.7531 12.2614 9.47641 11.9033C9.20297 11.542 8.83839 11.3613 8.38266 11.3613C7.93669 11.3613 7.57699 11.5387 7.30355 11.8936C7.03012 12.2484 6.8934 12.7562 6.8934 13.417ZM14.6413 11.5273C14.5046 11.5046 14.3565 11.4932 14.197 11.4932C13.6045 11.4932 13.2025 11.7454 12.9909 12.25V16H12.0876V10.7168H12.9665L12.9811 11.3271C13.2774 10.8551 13.6973 10.6191 14.2409 10.6191C14.4167 10.6191 14.5501 10.6419 14.6413 10.6875V11.5273ZM17.731 16.0977C17.0148 16.0977 16.4321 15.8633 15.9829 15.3945C15.5337 14.9225 15.3091 14.2926 15.3091 13.5049V13.3389C15.3091 12.8148 15.4084 12.3477 15.607 11.9375C15.8088 11.5241 16.0887 11.2018 16.4468 10.9707C16.8081 10.7363 17.1987 10.6191 17.6187 10.6191C18.3055 10.6191 18.8394 10.8454 19.2202 11.2979C19.6011 11.7503 19.7915 12.3981 19.7915 13.2412V13.6172H16.2124C16.2254 14.138 16.3768 14.5596 16.6665 14.8818C16.9595 15.2008 17.3306 15.3604 17.7798 15.3604C18.0988 15.3604 18.369 15.2952 18.5904 15.165C18.8117 15.0348 19.0054 14.8623 19.1714 14.6475L19.7232 15.0771C19.2805 15.7575 18.6164 16.0977 17.731 16.0977ZM17.6187 11.3613C17.2541 11.3613 16.9481 11.4948 16.7007 11.7617C16.4533 12.0254 16.3003 12.3965 16.2417 12.875H18.8882V12.8066C18.8622 12.3477 18.7385 11.9928 18.5171 11.7422C18.2958 11.4883 17.9963 11.3613 17.6187 11.3613ZM21.8509 10.7168L21.8754 11.3027C22.2627 10.847 22.7852 10.6191 23.4427 10.6191C24.1817 10.6191 24.6846 10.9023 24.9515 11.4688C25.1273 11.2148 25.3552 11.0098 25.6351 10.8535C25.9183 10.6973 26.252 10.6191 26.6361 10.6191C27.7949 10.6191 28.3841 11.2327 28.4037 12.46V16H27.5004V12.5137C27.5004 12.1361 27.4141 11.8545 27.2416 11.6689C27.069 11.4801 26.7793 11.3857 26.3724 11.3857C26.0371 11.3857 25.7588 11.4867 25.5375 11.6885C25.3161 11.887 25.1875 12.1556 25.1517 12.4941V16H24.2435V12.5381C24.2435 11.7699 23.8675 11.3857 23.1156 11.3857C22.5231 11.3857 22.1179 11.638 21.8998 12.1426V16H20.9964V10.7168H21.8509ZM33.7188 16H32.7813V8.89062H33.7188V16ZM39.9188 13.417C39.9188 14.221 39.7349 14.8688 39.3671 15.3604C38.9992 15.8519 38.5012 16.0977 37.8729 16.0977C37.2317 16.0977 36.7271 15.8942 36.3593 15.4873V18.0312H35.4559V10.7168H36.2811L36.3251 11.3027C36.6929 10.847 37.204 10.6191 37.8583 10.6191C38.493 10.6191 38.9943 10.8584 39.3622 11.3369C39.7333 11.8154 39.9188 12.4811 39.9188 13.334V13.417ZM39.0155 13.3145C39.0155 12.7188 38.8886 12.2484 38.6346 11.9033C38.3807 11.5583 38.0324 11.3857 37.5897 11.3857C37.0429 11.3857 36.6327 11.6283 36.3593 12.1133V14.6377C36.6294 15.1195 37.0429 15.3604 37.5995 15.3604C38.0324 15.3604 38.3759 15.1895 38.6298 14.8477C38.8869 14.5026 39.0155 13.9915 39.0155 13.3145ZM44.3073 14.5986C44.3073 14.3545 44.2146 14.1657 44.029 14.0322C43.8467 13.8955 43.5261 13.7783 43.0671 13.6807C42.6114 13.583 42.2484 13.4658 41.9782 13.3291C41.7113 13.1924 41.5127 13.0296 41.3825 12.8408C41.2556 12.652 41.1921 12.4274 41.1921 12.167C41.1921 11.734 41.3744 11.3678 41.739 11.0684C42.1068 10.7689 42.5756 10.6191 43.1452 10.6191C43.7442 10.6191 44.2292 10.7738 44.6003 11.083C44.9747 11.3923 45.1618 11.7878 45.1618 12.2695H44.2536C44.2536 12.0221 44.1478 11.8089 43.9362 11.6299C43.7279 11.4508 43.4642 11.3613 43.1452 11.3613C42.8165 11.3613 42.5593 11.4329 42.3737 11.5762C42.1882 11.7194 42.0954 11.9066 42.0954 12.1377C42.0954 12.3558 42.1817 12.5202 42.3542 12.6309C42.5267 12.7415 42.8376 12.8473 43.2868 12.9482C43.7393 13.0492 44.1055 13.1696 44.3855 13.3096C44.6654 13.4495 44.8721 13.6188 45.0056 13.8174C45.1423 14.0127 45.2107 14.252 45.2107 14.5352C45.2107 15.0072 45.0219 15.3864 44.6443 15.6729C44.2667 15.9561 43.7767 16.0977 43.1745 16.0977C42.7514 16.0977 42.377 16.0228 42.0515 15.873C41.726 15.7233 41.4704 15.515 41.2849 15.248C41.1026 14.9779 41.0114 14.6865 41.0114 14.374H41.9148C41.931 14.6768 42.0515 14.9176 42.2761 15.0967C42.504 15.2725 42.8034 15.3604 43.1745 15.3604C43.5163 15.3604 43.7898 15.292 43.9948 15.1553C44.2032 15.0153 44.3073 14.8298 44.3073 14.5986ZM49.8091 15.4775C49.4576 15.891 48.9416 16.0977 48.2613 16.0977C47.6981 16.0977 47.2684 15.9349 46.9722 15.6094C46.6793 15.2806 46.5311 14.7956 46.5279 14.1543V10.7168H47.4312V14.1299C47.4312 14.9307 47.7567 15.3311 48.4078 15.3311C49.0979 15.3311 49.5569 15.0739 49.7847 14.5596V10.7168H50.688V16H49.8287L49.8091 15.4775ZM53.0746 10.7168L53.099 11.3027C53.4864 10.847 54.0089 10.6191 54.6664 10.6191C55.4053 10.6191 55.9083 10.9023 56.1752 11.4688C56.351 11.2148 56.5788 11.0098 56.8588 10.8535C57.142 10.6973 57.4756 10.6191 57.8598 10.6191C59.0186 10.6191 59.6078 11.2327 59.6273 12.46V16H58.724V12.5137C58.724 12.1361 58.6378 11.8545 58.4652 11.6689C58.2927 11.4801 58.003 11.3857 57.5961 11.3857C57.2608 11.3857 56.9825 11.4867 56.7611 11.6885C56.5398 11.887 56.4112 12.1556 56.3754 12.4941V16H55.4672V12.5381C55.4672 11.7699 55.0912 11.3857 54.3393 11.3857C53.7468 11.3857 53.3415 11.638 53.1234 12.1426V16H52.2201V10.7168H53.0746ZM64.7764 16H63.8731V10.7168H64.7764V16ZM63.7999 9.31543C63.7999 9.16895 63.8438 9.04525 63.9317 8.94434C64.0229 8.84342 64.1563 8.79297 64.3321 8.79297C64.5079 8.79297 64.6414 8.84342 64.7325 8.94434C64.8236 9.04525 64.8692 9.16895 64.8692 9.31543C64.8692 9.46191 64.8236 9.58398 64.7325 9.68164C64.6414 9.7793 64.5079 9.82812 64.3321 9.82812C64.1563 9.82812 64.0229 9.7793 63.9317 9.68164C63.8438 9.58398 63.7999 9.46191 63.7999 9.31543ZM69.4628 14.5986C69.4628 14.3545 69.37 14.1657 69.1845 14.0322C69.0022 13.8955 68.6816 13.7783 68.2226 13.6807C67.7669 13.583 67.4039 13.4658 67.1337 13.3291C66.8668 13.1924 66.6682 13.0296 66.538 12.8408C66.4111 12.652 66.3476 12.4274 66.3476 12.167C66.3476 11.734 66.5299 11.3678 66.8945 11.0684C67.2623 10.7689 67.731 10.6191 68.3007 10.6191C68.8997 10.6191 69.3847 10.7738 69.7558 11.083C70.1301 11.3923 70.3173 11.7878 70.3173 12.2695H69.4091C69.4091 12.0221 69.3033 11.8089 69.0917 11.6299C68.8834 11.4508 68.6197 11.3613 68.3007 11.3613C67.9719 11.3613 67.7148 11.4329 67.5292 11.5762C67.3437 11.7194 67.2509 11.9066 67.2509 12.1377C67.2509 12.3558 67.3372 12.5202 67.5097 12.6309C67.6822 12.7415 67.9931 12.8473 68.4423 12.9482C68.8948 13.0492 69.261 13.1696 69.5409 13.3096C69.8209 13.4495 70.0276 13.6188 70.1611 13.8174C70.2978 14.0127 70.3661 14.252 70.3661 14.5352C70.3661 15.0072 70.1773 15.3864 69.7997 15.6729C69.4221 15.9561 68.9322 16.0977 68.33 16.0977C67.9068 16.0977 67.5325 16.0228 67.207 15.873C66.8814 15.7233 66.6259 15.515 66.4404 15.248C66.2581 14.9779 66.1669 14.6865 66.1669 14.374H67.0702C67.0865 14.6768 67.207 14.9176 67.4316 15.0967C67.6594 15.2725 67.9589 15.3604 68.33 15.3604C68.6718 15.3604 68.9452 15.292 69.1503 15.1553C69.3586 15.0153 69.4628 14.8298 69.4628 14.5986ZM77.4195 14.5986C77.4195 14.3545 77.3268 14.1657 77.1412 14.0322C76.9589 13.8955 76.6383 13.7783 76.1793 13.6807C75.7236 13.583 75.3606 13.4658 75.0904 13.3291C74.8235 13.1924 74.6249 13.0296 74.4947 12.8408C74.3678 12.652 74.3043 12.4274 74.3043 12.167C74.3043 11.734 74.4866 11.3678 74.8512 11.0684C75.219 10.7689 75.6878 10.6191 76.2574 10.6191C76.8564 10.6191 77.3414 10.7738 77.7125 11.083C78.0869 11.3923 78.274 11.7878 78.274 12.2695H77.3658C77.3658 12.0221 77.26 11.8089 77.0484 11.6299C76.8401 11.4508 76.5764 11.3613 76.2574 11.3613C75.9286 11.3613 75.6715 11.4329 75.4859 11.5762C75.3004 11.7194 75.2076 11.9066 75.2076 12.1377C75.2076 12.3558 75.2939 12.5202 75.4664 12.6309C75.6389 12.7415 75.9498 12.8473 76.399 12.9482C76.8515 13.0492 77.2177 13.1696 77.4977 13.3096C77.7776 13.4495 77.9843 13.6188 78.1178 13.8174C78.2545 14.0127 78.3229 14.252 78.3229 14.5352C78.3229 15.0072 78.1341 15.3864 77.7564 15.6729C77.3788 15.9561 76.8889 16.0977 76.2867 16.0977C75.8635 16.0977 75.4892 16.0228 75.1637 15.873C74.8382 15.7233 74.5826 15.515 74.3971 15.248C74.2148 14.9779 74.1236 14.6865 74.1236 14.374H75.027C75.0432 14.6768 75.1637 14.9176 75.3883 15.0967C75.6161 15.2725 75.9156 15.3604 76.2867 15.3604C76.6285 15.3604 76.902 15.292 77.107 15.1553C77.3154 15.0153 77.4195 14.8298 77.4195 14.5986ZM80.6411 16H79.7377V10.7168H80.6411V16ZM79.6645 9.31543C79.6645 9.16895 79.7084 9.04525 79.7963 8.94434C79.8875 8.84342 80.0209 8.79297 80.1967 8.79297C80.3725 8.79297 80.506 8.84342 80.5971 8.94434C80.6883 9.04525 80.7338 9.16895 80.7338 9.31543C80.7338 9.46191 80.6883 9.58398 80.5971 9.68164C80.506 9.7793 80.3725 9.82812 80.1967 9.82812C80.0209 9.82812 79.8875 9.7793 79.7963 9.68164C79.7084 9.58398 79.6645 9.46191 79.6645 9.31543ZM83.1009 10.7168L83.1253 11.3027C83.5126 10.847 84.0351 10.6191 84.6927 10.6191C85.4316 10.6191 85.9345 10.9023 86.2014 11.4688C86.3772 11.2148 86.6051 11.0098 86.885 10.8535C87.1682 10.6973 87.5019 10.6191 87.886 10.6191C89.0449 10.6191 89.6341 11.2327 89.6536 12.46V16H88.7503V12.5137C88.7503 12.1361 88.664 11.8545 88.4915 11.6689C88.319 11.4801 88.0292 11.3857 87.6223 11.3857C87.2871 11.3857 87.0087 11.4867 86.7874 11.6885C86.566 11.887 86.4374 12.1556 86.4016 12.4941V16H85.4934V12.5381C85.4934 11.7699 85.1175 11.3857 84.3655 11.3857C83.7731 11.3857 83.3678 11.638 83.1497 12.1426V16H82.2464V10.7168H83.1009ZM95.6437 13.417C95.6437 14.221 95.4597 14.8688 95.0919 15.3604C94.7241 15.8519 94.226 16.0977 93.5978 16.0977C92.9565 16.0977 92.4519 15.8942 92.0841 15.4873V18.0312H91.1808V10.7168H92.006L92.0499 11.3027C92.4178 10.847 92.9288 10.6191 93.5831 10.6191C94.2179 10.6191 94.7192 10.8584 95.087 11.3369C95.4581 11.8154 95.6437 12.4811 95.6437 13.334V13.417ZM94.7403 13.3145C94.7403 12.7188 94.6134 12.2484 94.3595 11.9033C94.1056 11.5583 93.7573 11.3857 93.3146 11.3857C92.7677 11.3857 92.3575 11.6283 92.0841 12.1133V14.6377C92.3543 15.1195 92.7677 15.3604 93.3243 15.3604C93.7573 15.3604 94.1007 15.1895 94.3546 14.8477C94.6118 14.5026 94.7403 13.9915 94.7403 13.3145ZM97.9375 16H97.0341V8.5H97.9375V16ZM101.276 14.6768L102.507 10.7168H103.473L101.349 16.8154C101.021 17.6943 100.498 18.1338 99.782 18.1338L99.6111 18.1191L99.2742 18.0557V17.3232L99.5184 17.3428C99.8243 17.3428 100.062 17.2809 100.231 17.1572C100.404 17.0335 100.545 16.8073 100.656 16.4785L100.856 15.9414L98.9715 10.7168H99.9578L101.276 14.6768ZM106.865 13.3145C106.865 12.5039 107.057 11.8529 107.441 11.3613C107.825 10.8665 108.328 10.6191 108.95 10.6191C109.568 10.6191 110.058 10.8307 110.419 11.2539V8.5H111.323V16H110.493L110.449 15.4336C110.087 15.8763 109.584 16.0977 108.94 16.0977C108.328 16.0977 107.828 15.847 107.441 15.3457C107.057 14.8444 106.865 14.1901 106.865 13.3828V13.3145ZM107.768 13.417C107.768 14.016 107.892 14.4847 108.139 14.8232C108.387 15.1618 108.728 15.3311 109.165 15.3311C109.737 15.3311 110.156 15.0739 110.419 14.5596V12.1328C110.149 11.6348 109.734 11.3857 109.174 11.3857C108.732 11.3857 108.387 11.5566 108.139 11.8984C107.892 12.2402 107.768 12.7464 107.768 13.417ZM116.151 15.4775C115.799 15.891 115.283 16.0977 114.603 16.0977C114.04 16.0977 113.61 15.9349 113.314 15.6094C113.021 15.2806 112.873 14.7956 112.869 14.1543V10.7168H113.773V14.1299C113.773 14.9307 114.098 15.3311 114.749 15.3311C115.439 15.3311 115.898 15.0739 116.126 14.5596V10.7168H117.03V16H116.17L116.151 15.4775ZM119.416 10.7168L119.441 11.3027C119.828 10.847 120.35 10.6191 121.008 10.6191C121.747 10.6191 122.25 10.9023 122.517 11.4688C122.693 11.2148 122.92 11.0098 123.2 10.8535C123.484 10.6973 123.817 10.6191 124.201 10.6191C125.36 10.6191 125.949 11.2327 125.969 12.46V16H125.066V12.5137C125.066 12.1361 124.979 11.8545 124.807 11.6689C124.634 11.4801 124.345 11.3857 123.938 11.3857C123.602 11.3857 123.324 11.4867 123.103 11.6885C122.881 11.887 122.753 12.1556 122.717 12.4941V16H121.809V12.5381C121.809 11.7699 121.433 11.3857 120.681 11.3857C120.088 11.3857 119.683 11.638 119.465 12.1426V16H118.562V10.7168H119.416ZM128.346 10.7168L128.37 11.3027C128.757 10.847 129.28 10.6191 129.938 10.6191C130.676 10.6191 131.179 10.9023 131.446 11.4688C131.622 11.2148 131.85 11.0098 132.13 10.8535C132.413 10.6973 132.747 10.6191 133.131 10.6191C134.29 10.6191 134.879 11.2327 134.898 12.46V16H133.995V12.5137C133.995 12.1361 133.909 11.8545 133.736 11.6689C133.564 11.4801 133.274 11.3857 132.867 11.3857C132.532 11.3857 132.254 11.4867 132.032 11.6885C131.811 11.887 131.682 12.1556 131.646 12.4941V16H130.738V12.5381C130.738 11.7699 130.362 11.3857 129.61 11.3857C129.018 11.3857 128.613 11.638 128.395 12.1426V16H127.491V10.7168H128.346ZM138.154 14.6768L139.385 10.7168H140.351L138.227 16.8154C137.899 17.6943 137.376 18.1338 136.66 18.1338L136.489 18.1191L136.152 18.0557V17.3232L136.396 17.3428C136.702 17.3428 136.94 17.2809 137.109 17.1572C137.282 17.0335 137.423 16.8073 137.534 16.4785L137.734 15.9414L135.849 10.7168H136.836L138.154 14.6768ZM145.188 9.4375V10.7168H146.174V11.415H145.188V14.6914C145.188 14.903 145.232 15.0625 145.32 15.1699C145.408 15.2741 145.557 15.3262 145.769 15.3262C145.873 15.3262 146.016 15.3066 146.199 15.2676V16C145.961 16.0651 145.73 16.0977 145.505 16.0977C145.102 16.0977 144.797 15.9756 144.592 15.7314C144.387 15.4873 144.285 15.1406 144.285 14.6914V11.415H143.323V10.7168H144.285V9.4375H145.188ZM149.586 16.0977C148.87 16.0977 148.287 15.8633 147.838 15.3945C147.389 14.9225 147.164 14.2926 147.164 13.5049V13.3389C147.164 12.8148 147.264 12.3477 147.462 11.9375C147.664 11.5241 147.944 11.2018 148.302 10.9707C148.663 10.7363 149.054 10.6191 149.474 10.6191C150.161 10.6191 150.695 10.8454 151.076 11.2979C151.456 11.7503 151.647 12.3981 151.647 13.2412V13.6172H148.068C148.081 14.138 148.232 14.5596 148.522 14.8818C148.815 15.2008 149.186 15.3604 149.635 15.3604C149.954 15.3604 150.224 15.2952 150.446 15.165C150.667 15.0348 150.861 14.8623 151.027 14.6475L151.578 15.0771C151.136 15.7575 150.472 16.0977 149.586 16.0977ZM149.474 11.3613C149.109 11.3613 148.803 11.4948 148.556 11.7617C148.309 12.0254 148.156 12.3965 148.097 12.875H150.744V12.8066C150.717 12.3477 150.594 11.9928 150.372 11.7422C150.151 11.4883 149.852 11.3613 149.474 11.3613ZM154.629 12.6455L155.801 10.7168H156.856L155.127 13.3291L156.909 16H155.864L154.644 14.0225L153.423 16H152.373L154.155 13.3291L152.427 10.7168H153.472L154.629 12.6455ZM159.203 9.4375V10.7168H160.189V11.415H159.203V14.6914C159.203 14.903 159.247 15.0625 159.335 15.1699C159.423 15.2741 159.573 15.3262 159.784 15.3262C159.888 15.3262 160.032 15.3066 160.214 15.2676V16C159.976 16.0651 159.745 16.0977 159.521 16.0977C159.117 16.0977 158.813 15.9756 158.607 15.7314C158.402 15.4873 158.3 15.1406 158.3 14.6914V11.415H157.338V10.7168H158.3V9.4375H159.203ZM163.81 13.3096C163.81 12.792 163.911 12.3265 164.113 11.9131C164.318 11.4997 164.601 11.1807 164.963 10.9561C165.327 10.7314 165.742 10.6191 166.208 10.6191C166.927 10.6191 167.508 10.8682 167.951 11.3662C168.397 11.8643 168.62 12.5267 168.62 13.3535V13.417C168.62 13.9313 168.521 14.3936 168.322 14.8037C168.127 15.2106 167.845 15.528 167.477 15.7559C167.113 15.9837 166.693 16.0977 166.217 16.0977C165.501 16.0977 164.92 15.8486 164.474 15.3506C164.032 14.8525 163.81 14.1934 163.81 13.373V13.3096ZM164.718 13.417C164.718 14.0029 164.854 14.4733 165.124 14.8281C165.397 15.1829 165.762 15.3604 166.217 15.3604C166.676 15.3604 167.041 15.1813 167.311 14.8232C167.581 14.4619 167.717 13.9574 167.717 13.3096C167.717 12.7301 167.578 12.2614 167.301 11.9033C167.028 11.542 166.663 11.3613 166.208 11.3613C165.762 11.3613 165.402 11.5387 165.129 11.8936C164.855 12.2484 164.718 12.7562 164.718 13.417ZM170.357 16V11.415H169.522V10.7168H170.357V10.1748C170.357 9.6084 170.508 9.17057 170.811 8.86133C171.114 8.55208 171.542 8.39746 172.095 8.39746C172.304 8.39746 172.51 8.42513 172.715 8.48047L172.667 9.21289C172.514 9.18359 172.351 9.16895 172.178 9.16895C171.885 9.16895 171.659 9.25521 171.5 9.42773C171.34 9.59701 171.26 9.84115 171.26 10.1602V10.7168H172.388V11.415H171.26V16H170.357ZM1.90918 24.4375V25.7168H2.89551V26.415H1.90918V29.6914C1.90918 29.903 1.95312 30.0625 2.04102 30.1699C2.12891 30.2741 2.27865 30.3262 2.49023 30.3262C2.5944 30.3262 2.73763 30.3066 2.91992 30.2676V31C2.68229 31.0651 2.45117 31.0977 2.22656 31.0977C1.82292 31.0977 1.51855 30.9756 1.31348 30.7314C1.1084 30.4873 1.00586 30.1406 1.00586 29.6914V26.415H0.0439453V25.7168H1.00586V24.4375H1.90918ZM5.0184 26.3564C5.41879 25.8649 5.93962 25.6191 6.5809 25.6191C7.69743 25.6191 8.26059 26.249 8.27035 27.5088V31H7.36703V27.5039C7.36378 27.123 7.27589 26.8415 7.10336 26.6592C6.93409 26.4769 6.66879 26.3857 6.30746 26.3857C6.01449 26.3857 5.75733 26.4639 5.53598 26.6201C5.31462 26.7764 5.1421 26.9814 5.0184 27.2354V31H4.11508V23.5H5.0184V26.3564ZM11.9753 31.0977C11.2591 31.0977 10.6764 30.8633 10.2272 30.3945C9.77801 29.9225 9.5534 29.2926 9.5534 28.5049V28.3389C9.5534 27.8148 9.65268 27.3477 9.85125 26.9375C10.0531 26.5241 10.333 26.2018 10.6911 25.9707C11.0524 25.7363 11.443 25.6191 11.863 25.6191C12.5498 25.6191 13.0837 25.8454 13.4645 26.2979C13.8454 26.7503 14.0358 27.3981 14.0358 28.2412V28.6172H10.4567C10.4697 29.138 10.6211 29.5596 10.9108 29.8818C11.2038 30.2008 11.5749 30.3604 12.0241 30.3604C12.3431 30.3604 12.6133 30.2952 12.8346 30.165C13.056 30.0348 13.2497 29.8623 13.4157 29.6475L13.9675 30.0771C13.5248 30.7575 12.8607 31.0977 11.9753 31.0977ZM11.863 26.3613C11.4984 26.3613 11.1924 26.4948 10.945 26.7617C10.6976 27.0254 10.5446 27.3965 10.486 27.875H13.1325V27.8066C13.1065 27.3477 12.9828 26.9928 12.7614 26.7422C12.5401 26.4883 12.2406 26.3613 11.863 26.3613ZM22.349 28.417C22.349 29.221 22.1651 29.8688 21.7972 30.3604C21.4294 30.8519 20.9313 31.0977 20.3031 31.0977C19.6618 31.0977 19.1573 30.8942 18.7894 30.4873V33.0312H17.8861V25.7168H18.7113L18.7552 26.3027C19.1231 25.847 19.6341 25.6191 20.2884 25.6191C20.9232 25.6191 21.4245 25.8584 21.7923 26.3369C22.1634 26.8154 22.349 27.4811 22.349 28.334V28.417ZM21.4457 28.3145C21.4457 27.7188 21.3187 27.2484 21.0648 26.9033C20.8109 26.5583 20.4626 26.3857 20.0199 26.3857C19.473 26.3857 19.0629 26.6283 18.7894 27.1133V29.6377C19.0596 30.1195 19.473 30.3604 20.0296 30.3604C20.4626 30.3604 20.806 30.1895 21.0599 29.8477C21.3171 29.5026 21.4457 28.9915 21.4457 28.3145ZM26.215 26.5273C26.0783 26.5046 25.9302 26.4932 25.7707 26.4932C25.1783 26.4932 24.7762 26.7454 24.5646 27.25V31H23.6613V25.7168H24.5402L24.5549 26.3271C24.8511 25.8551 25.271 25.6191 25.8146 25.6191C25.9904 25.6191 26.1239 25.6419 26.215 25.6875V26.5273ZM28.1914 31H27.2881V25.7168H28.1914V31ZM27.2149 24.3154C27.2149 24.1689 27.2588 24.0452 27.3467 23.9443C27.4379 23.8434 27.5713 23.793 27.7471 23.793C27.9229 23.793 28.0564 23.8434 28.1475 23.9443C28.2386 24.0452 28.2842 24.1689 28.2842 24.3154C28.2842 24.4619 28.2386 24.584 28.1475 24.6816C28.0564 24.7793 27.9229 24.8281 27.7471 24.8281C27.5713 24.8281 27.4379 24.7793 27.3467 24.6816C27.2588 24.584 27.2149 24.4619 27.2149 24.3154ZM30.6561 25.7168L30.6854 26.3809C31.0891 25.873 31.6164 25.6191 32.2675 25.6191C33.384 25.6191 33.9471 26.249 33.9569 27.5088V31H33.0536V27.5039C33.0503 27.123 32.9624 26.8415 32.7899 26.6592C32.6207 26.4769 32.3554 26.3857 31.994 26.3857C31.7011 26.3857 31.4439 26.4639 31.2225 26.6201C31.0012 26.7764 30.8287 26.9814 30.705 27.2354V31H29.8016V25.7168H30.6561ZM36.7048 24.4375V25.7168H37.6911V26.415H36.7048V29.6914C36.7048 29.903 36.7487 30.0625 36.8366 30.1699C36.9245 30.2741 37.0743 30.3262 37.2859 30.3262C37.39 30.3262 37.5333 30.3066 37.7155 30.2676V31C37.4779 31.0651 37.2468 31.0977 37.0222 31.0977C36.6185 31.0977 36.3142 30.9756 36.1091 30.7314C35.904 30.4873 35.8015 30.1406 35.8015 29.6914V26.415H34.8396V25.7168H35.8015V24.4375H36.7048ZM39.8921 31H38.9888V25.7168H39.8921V31ZM38.9156 24.3154C38.9156 24.1689 38.9595 24.0452 39.0474 23.9443C39.1386 23.8434 39.272 23.793 39.4478 23.793C39.6236 23.793 39.7571 23.8434 39.8482 23.9443C39.9393 24.0452 39.9849 24.1689 39.9849 24.3154C39.9849 24.4619 39.9393 24.584 39.8482 24.6816C39.7571 24.7793 39.6236 24.8281 39.4478 24.8281C39.272 24.8281 39.1386 24.7793 39.0474 24.6816C38.9595 24.584 38.9156 24.4619 38.9156 24.3154ZM42.3568 25.7168L42.3861 26.3809C42.7898 25.873 43.3171 25.6191 43.9682 25.6191C45.0847 25.6191 45.6479 26.249 45.6576 27.5088V31H44.7543V27.5039C44.751 27.123 44.6631 26.8415 44.4906 26.6592C44.3214 26.4769 44.0561 26.3857 43.6947 26.3857C43.4018 26.3857 43.1446 26.4639 42.9232 26.6201C42.7019 26.7764 42.5294 26.9814 42.4057 27.2354V31H41.5023V25.7168H42.3568ZM46.9651 28.3145C46.9651 27.4909 47.1555 26.8366 47.5364 26.3516C47.9172 25.8633 48.4218 25.6191 49.05 25.6191C49.6946 25.6191 50.1975 25.847 50.5588 26.3027L50.6028 25.7168H51.428V30.873C51.428 31.5566 51.2245 32.0954 50.8176 32.4893C50.414 32.8831 49.8703 33.0801 49.1868 33.0801C48.8059 33.0801 48.4332 32.9987 48.0686 32.8359C47.704 32.6732 47.4257 32.4502 47.2336 32.167L47.7024 31.625C48.0898 32.1035 48.5634 32.3428 49.1233 32.3428C49.5627 32.3428 49.9045 32.2191 50.1487 31.9717C50.3961 31.7243 50.5198 31.376 50.5198 30.9268V30.4727C50.1584 30.8893 49.6653 31.0977 49.0403 31.0977C48.4218 31.0977 47.9205 30.8486 47.5364 30.3506C47.1555 29.8525 46.9651 29.1738 46.9651 28.3145ZM47.8733 28.417C47.8733 29.0127 47.9953 29.4814 48.2395 29.8232C48.4836 30.1618 48.8254 30.3311 49.2649 30.3311C49.8345 30.3311 50.2528 30.0723 50.5198 29.5547V27.1426C50.2431 26.638 49.828 26.3857 49.2746 26.3857C48.8352 26.3857 48.4918 26.5566 48.2444 26.8984C47.997 27.2402 47.8733 27.7464 47.8733 28.417ZM58.8573 31C58.8053 30.8958 58.7629 30.7103 58.7304 30.4434C58.3105 30.8796 57.8092 31.0977 57.2265 31.0977C56.7057 31.0977 56.2776 30.9512 55.9423 30.6582C55.6103 30.362 55.4443 29.9876 55.4443 29.5352C55.4443 28.985 55.6526 28.5586 56.0693 28.2559C56.4892 27.9499 57.0784 27.7969 57.8368 27.7969H58.7157V27.3818C58.7157 27.0661 58.6213 26.8154 58.4325 26.6299C58.2437 26.4411 57.9654 26.3467 57.5976 26.3467C57.2753 26.3467 57.0051 26.4281 56.787 26.5908C56.5689 26.7536 56.4599 26.9505 56.4599 27.1816H55.5517C55.5517 26.918 55.6445 26.6641 55.83 26.4199C56.0188 26.1725 56.2727 25.9772 56.5917 25.834C56.914 25.6908 57.2672 25.6191 57.6513 25.6191C58.26 25.6191 58.7369 25.7721 59.082 26.0781C59.427 26.3809 59.606 26.7992 59.6191 27.333V29.7646C59.6191 30.2497 59.6809 30.6354 59.8046 30.9219V31H58.8573ZM57.3583 30.3115C57.6415 30.3115 57.9101 30.2383 58.164 30.0918C58.4179 29.9453 58.6018 29.7549 58.7157 29.5205V28.4365H58.0077C56.901 28.4365 56.3476 28.7604 56.3476 29.4082C56.3476 29.6914 56.442 29.9128 56.6308 30.0723C56.8196 30.2318 57.0621 30.3115 57.3583 30.3115ZM62.0496 25.7168L62.0789 26.3809C62.4825 25.873 63.0099 25.6191 63.6609 25.6191C64.7774 25.6191 65.3406 26.249 65.3504 27.5088V31H64.447V27.5039C64.4438 27.123 64.3559 26.8415 64.1834 26.6592C64.0141 26.4769 63.7488 26.3857 63.3875 26.3857C63.0945 26.3857 62.8373 26.4639 62.616 26.6201C62.3946 26.7764 62.2221 26.9814 62.0984 27.2354V31H61.1951V25.7168H62.0496ZM66.6529 28.3145C66.6529 27.5039 66.845 26.8529 67.2291 26.3613C67.6132 25.8665 68.1161 25.6191 68.7379 25.6191C69.3564 25.6191 69.8463 25.8307 70.2076 26.2539V23.5H71.1109V31H70.2809L70.2369 30.4336C69.8756 30.8763 69.3727 31.0977 68.7281 31.0977C68.1161 31.0977 67.6165 30.847 67.2291 30.3457C66.845 29.8444 66.6529 29.1901 66.6529 28.3828V28.3145ZM67.5563 28.417C67.5563 29.016 67.6799 29.4847 67.9273 29.8232C68.1747 30.1618 68.5165 30.3311 68.9527 30.3311C69.5257 30.3311 69.9439 30.0739 70.2076 29.5596V27.1328C69.9374 26.6348 69.5224 26.3857 68.9625 26.3857C68.5198 26.3857 68.1747 26.5566 67.9273 26.8984C67.6799 27.2402 67.5563 27.7464 67.5563 28.417ZM76.5432 24.4375V25.7168H77.5296V26.415H76.5432V29.6914C76.5432 29.903 76.5872 30.0625 76.6751 30.1699C76.763 30.2741 76.9127 30.3262 77.1243 30.3262C77.2285 30.3262 77.3717 30.3066 77.554 30.2676V31C77.3164 31.0651 77.0852 31.0977 76.8606 31.0977C76.457 31.0977 76.1526 30.9756 75.9475 30.7314C75.7425 30.4873 75.6399 30.1406 75.6399 29.6914V26.415H74.678V25.7168H75.6399V24.4375H76.5432ZM80.4777 29.6768L81.7081 25.7168H82.6749L80.5509 31.8154C80.2221 32.6943 79.6997 33.1338 78.9835 33.1338L78.8126 33.1191L78.4757 33.0557V32.3232L78.7198 32.3428C79.0258 32.3428 79.2635 32.2809 79.4327 32.1572C79.6053 32.0335 79.7469 31.8073 79.8575 31.4785L80.0577 30.9414L78.173 25.7168H79.1593L80.4777 29.6768ZM88.1084 28.417C88.1084 29.221 87.9244 29.8688 87.5566 30.3604C87.1888 30.8519 86.6907 31.0977 86.0625 31.0977C85.4212 31.0977 84.9166 30.8942 84.5488 30.4873V33.0312H83.6455V25.7168H84.4707L84.5146 26.3027C84.8824 25.847 85.3935 25.6191 86.0478 25.6191C86.6826 25.6191 87.1839 25.8584 87.5517 26.3369C87.9228 26.8154 88.1084 27.4811 88.1084 28.334V28.417ZM87.205 28.3145C87.205 27.7188 87.0781 27.2484 86.8242 26.9033C86.5703 26.5583 86.222 26.3857 85.7793 26.3857C85.2324 26.3857 84.8222 26.6283 84.5488 27.1133V29.6377C84.819 30.1195 85.2324 30.3604 85.789 30.3604C86.222 30.3604 86.5654 30.1895 86.8193 29.8477C87.0765 29.5026 87.205 28.9915 87.205 28.3145ZM91.6131 31.0977C90.8969 31.0977 90.3143 30.8633 89.865 30.3945C89.4158 29.9225 89.1912 29.2926 89.1912 28.5049V28.3389C89.1912 27.8148 89.2905 27.3477 89.4891 26.9375C89.6909 26.5241 89.9708 26.2018 90.3289 25.9707C90.6902 25.7363 91.0809 25.6191 91.5008 25.6191C92.1876 25.6191 92.7215 25.8454 93.1023 26.2979C93.4832 26.7503 93.6736 27.3981 93.6736 28.2412V28.6172H90.0945C90.1075 29.138 90.2589 29.5596 90.5486 29.8818C90.8416 30.2008 91.2127 30.3604 91.6619 30.3604C91.9809 30.3604 92.2511 30.2952 92.4725 30.165C92.6938 30.0348 92.8875 29.8623 93.0535 29.6475L93.6053 30.0771C93.1626 30.7575 92.4985 31.0977 91.6131 31.0977ZM91.5008 26.3613C91.1362 26.3613 90.8302 26.4948 90.5828 26.7617C90.3354 27.0254 90.1824 27.3965 90.1238 27.875H92.7703V27.8066C92.7443 27.3477 92.6206 26.9928 92.3992 26.7422C92.1779 26.4883 91.8784 26.3613 91.5008 26.3613ZM97.9596 29.5986C97.9596 29.3545 97.8668 29.1657 97.6813 29.0322C97.499 28.8955 97.1784 28.7783 96.7194 28.6807C96.2636 28.583 95.9007 28.4658 95.6305 28.3291C95.3636 28.1924 95.165 28.0296 95.0348 27.8408C94.9079 27.652 94.8444 27.4274 94.8444 27.167C94.8444 26.734 95.0267 26.3678 95.3913 26.0684C95.7591 25.7689 96.2278 25.6191 96.7975 25.6191C97.3965 25.6191 97.8815 25.7738 98.2526 26.083C98.6269 26.3923 98.8141 26.7878 98.8141 27.2695H97.9059C97.9059 27.0221 97.8001 26.8089 97.5885 26.6299C97.3802 26.4508 97.1165 26.3613 96.7975 26.3613C96.4687 26.3613 96.2116 26.4329 96.026 26.5762C95.8405 26.7194 95.7477 26.9066 95.7477 27.1377C95.7477 27.3558 95.834 27.5202 96.0065 27.6309C96.179 27.7415 96.4899 27.8473 96.9391 27.9482C97.3916 28.0492 97.7578 28.1696 98.0377 28.3096C98.3177 28.4495 98.5244 28.6188 98.6579 28.8174C98.7946 29.0127 98.8629 29.252 98.8629 29.5352C98.8629 30.0072 98.6741 30.3864 98.2965 30.6729C97.9189 30.9561 97.429 31.0977 96.8268 31.0977C96.4036 31.0977 96.0293 31.0228 95.7038 30.873C95.3782 30.7233 95.1227 30.515 94.9371 30.248C94.7549 29.9779 94.6637 29.6865 94.6637 29.374H95.567C95.5833 29.6768 95.7038 29.9176 95.9284 30.0967C96.1562 30.2725 96.4557 30.3604 96.8268 30.3604C97.1686 30.3604 97.442 30.292 97.6471 30.1553C97.8554 30.0153 97.9596 29.8298 97.9596 29.5986ZM102.392 31.0977C101.676 31.0977 101.093 30.8633 100.644 30.3945C100.195 29.9225 99.9702 29.2926 99.9702 28.5049V28.3389C99.9702 27.8148 100.069 27.3477 100.268 26.9375C100.47 26.5241 100.75 26.2018 101.108 25.9707C101.469 25.7363 101.86 25.6191 102.28 25.6191C102.967 25.6191 103.5 25.8454 103.881 26.2979C104.262 26.7503 104.453 27.3981 104.453 28.2412V28.6172H100.874C100.887 29.138 101.038 29.5596 101.328 29.8818C101.621 30.2008 101.992 30.3604 102.441 30.3604C102.76 30.3604 103.03 30.2952 103.251 30.165C103.473 30.0348 103.666 29.8623 103.832 29.6475L104.384 30.0771C103.942 30.7575 103.277 31.0977 102.392 31.0977ZM102.28 26.3613C101.915 26.3613 101.609 26.4948 101.362 26.7617C101.114 27.0254 100.961 27.3965 100.903 27.875H103.549V27.8066C103.523 27.3477 103.4 26.9928 103.178 26.7422C102.957 26.4883 102.657 26.3613 102.28 26.3613ZM106.888 24.4375V25.7168H107.874V26.415H106.888V29.6914C106.888 29.903 106.932 30.0625 107.02 30.1699C107.108 30.2741 107.257 30.3262 107.469 30.3262C107.573 30.3262 107.716 30.3066 107.899 30.2676V31C107.661 31.0651 107.43 31.0977 107.205 31.0977C106.802 31.0977 106.497 30.9756 106.292 30.7314C106.087 30.4873 105.985 30.1406 105.985 29.6914V26.415H105.023V25.7168H105.985V24.4375H106.888ZM110.319 24.4375V25.7168H111.306V26.415H110.319V29.6914C110.319 29.903 110.363 30.0625 110.451 30.1699C110.539 30.2741 110.689 30.3262 110.901 30.3262C111.005 30.3262 111.148 30.3066 111.33 30.2676V31C111.093 31.0651 110.861 31.0977 110.637 31.0977C110.233 31.0977 109.929 30.9756 109.724 30.7314C109.519 30.4873 109.416 30.1406 109.416 29.6914V26.415H108.454V25.7168H109.416V24.4375H110.319ZM113.507 31H112.604V25.7168H113.507V31ZM112.53 24.3154C112.53 24.1689 112.574 24.0452 112.662 23.9443C112.753 23.8434 112.887 23.793 113.062 23.793C113.238 23.793 113.372 23.8434 113.463 23.9443C113.554 24.0452 113.6 24.1689 113.6 24.3154C113.6 24.4619 113.554 24.584 113.463 24.6816C113.372 24.7793 113.238 24.8281 113.062 24.8281C112.887 24.8281 112.753 24.7793 112.662 24.6816C112.574 24.584 112.53 24.4619 112.53 24.3154ZM115.972 25.7168L116.001 26.3809C116.404 25.873 116.932 25.6191 117.583 25.6191C118.699 25.6191 119.263 26.249 119.272 27.5088V31H118.369V27.5039C118.366 27.123 118.278 26.8415 118.105 26.6592C117.936 26.4769 117.671 26.3857 117.309 26.3857C117.016 26.3857 116.759 26.4639 116.538 26.6201C116.317 26.7764 116.144 26.9814 116.02 27.2354V31H115.117V25.7168H115.972ZM120.58 28.3145C120.58 27.4909 120.77 26.8366 121.151 26.3516C121.532 25.8633 122.036 25.6191 122.665 25.6191C123.309 25.6191 123.812 25.847 124.174 26.3027L124.217 25.7168H125.043V30.873C125.043 31.5566 124.839 32.0954 124.432 32.4893C124.029 32.8831 123.485 33.0801 122.801 33.0801C122.421 33.0801 122.048 32.9987 121.683 32.8359C121.319 32.6732 121.04 32.4502 120.848 32.167L121.317 31.625C121.704 32.1035 122.178 32.3428 122.738 32.3428C123.177 32.3428 123.519 32.2191 123.763 31.9717C124.011 31.7243 124.134 31.376 124.134 30.9268V30.4727C123.773 30.8893 123.28 31.0977 122.655 31.0977C122.036 31.0977 121.535 30.8486 121.151 30.3506C120.77 29.8525 120.58 29.1738 120.58 28.3145ZM121.488 28.417C121.488 29.0127 121.61 29.4814 121.854 29.8232C122.098 30.1618 122.44 30.3311 122.88 30.3311C123.449 30.3311 123.868 30.0723 124.134 29.5547V27.1426C123.858 26.638 123.443 26.3857 122.889 26.3857C122.45 26.3857 122.106 26.5566 121.859 26.8984C121.612 27.2402 121.488 27.7464 121.488 28.417ZM130.192 31H129.288V25.7168H130.192V31ZM129.215 24.3154C129.215 24.1689 129.259 24.0452 129.347 23.9443C129.438 23.8434 129.572 23.793 129.747 23.793C129.923 23.793 130.057 23.8434 130.148 23.9443C130.239 24.0452 130.285 24.1689 130.285 24.3154C130.285 24.4619 130.239 24.584 130.148 24.6816C130.057 24.7793 129.923 24.8281 129.747 24.8281C129.572 24.8281 129.438 24.7793 129.347 24.6816C129.259 24.584 129.215 24.4619 129.215 24.3154ZM132.656 25.7168L132.686 26.3809C133.089 25.873 133.617 25.6191 134.268 25.6191C135.384 25.6191 135.947 26.249 135.957 27.5088V31H135.054V27.5039C135.051 27.123 134.963 26.8415 134.79 26.6592C134.621 26.4769 134.356 26.3857 133.994 26.3857C133.701 26.3857 133.444 26.4639 133.223 26.6201C133.002 26.7764 132.829 26.9814 132.705 27.2354V31H131.802V25.7168H132.656ZM137.26 28.3145C137.26 27.5039 137.452 26.8529 137.836 26.3613C138.22 25.8665 138.723 25.6191 139.345 25.6191C139.963 25.6191 140.453 25.8307 140.814 26.2539V23.5H141.718V31H140.888L140.844 30.4336C140.482 30.8763 139.98 31.0977 139.335 31.0977C138.723 31.0977 138.223 30.847 137.836 30.3457C137.452 29.8444 137.26 29.1901 137.26 28.3828V28.3145ZM138.163 28.417C138.163 29.016 138.287 29.4847 138.534 29.8232C138.782 30.1618 139.123 30.3311 139.56 30.3311C140.133 30.3311 140.551 30.0739 140.814 29.5596V27.1328C140.544 26.6348 140.129 26.3857 139.569 26.3857C139.127 26.3857 138.782 26.5566 138.534 26.8984C138.287 27.2402 138.163 27.7464 138.163 28.417ZM146.546 30.4775C146.194 30.891 145.678 31.0977 144.998 31.0977C144.435 31.0977 144.005 30.9349 143.709 30.6094C143.416 30.2806 143.268 29.7956 143.265 29.1543V25.7168H144.168V29.1299C144.168 29.9307 144.493 30.3311 145.144 30.3311C145.835 30.3311 146.293 30.0739 146.521 29.5596V25.7168H147.425V31H146.565L146.546 30.4775ZM152.038 29.5986C152.038 29.3545 151.945 29.1657 151.759 29.0322C151.577 28.8955 151.257 28.7783 150.798 28.6807C150.342 28.583 149.979 28.4658 149.709 28.3291C149.442 28.1924 149.243 28.0296 149.113 27.8408C148.986 27.652 148.923 27.4274 148.923 27.167C148.923 26.734 149.105 26.3678 149.469 26.0684C149.837 25.7689 150.306 25.6191 150.876 25.6191C151.475 25.6191 151.96 25.7738 152.331 26.083C152.705 26.3923 152.892 26.7878 152.892 27.2695H151.984C151.984 27.0221 151.878 26.8089 151.667 26.6299C151.458 26.4508 151.195 26.3613 150.876 26.3613C150.547 26.3613 150.29 26.4329 150.104 26.5762C149.919 26.7194 149.826 26.9066 149.826 27.1377C149.826 27.3558 149.912 27.5202 150.085 27.6309C150.257 27.7415 150.568 27.8473 151.017 27.9482C151.47 28.0492 151.836 28.1696 152.116 28.3096C152.396 28.4495 152.603 28.6188 152.736 28.8174C152.873 29.0127 152.941 29.252 152.941 29.5352C152.941 30.0072 152.752 30.3864 152.375 30.6729C151.997 30.9561 151.507 31.0977 150.905 31.0977C150.482 31.0977 150.107 31.0228 149.782 30.873C149.456 30.7233 149.201 30.515 149.015 30.248C148.833 29.9779 148.742 29.6865 148.742 29.374H149.645C149.662 29.6768 149.782 29.9176 150.007 30.0967C150.234 30.2725 150.534 30.3604 150.905 30.3604C151.247 30.3604 151.52 30.292 151.725 30.1553C151.934 30.0153 152.038 29.8298 152.038 29.5986ZM155.503 24.4375V25.7168H156.49V26.415H155.503V29.6914C155.503 29.903 155.547 30.0625 155.635 30.1699C155.723 30.2741 155.873 30.3262 156.085 30.3262C156.189 30.3262 156.332 30.3066 156.514 30.2676V31C156.277 31.0651 156.045 31.0977 155.821 31.0977C155.417 31.0977 155.113 30.9756 154.908 30.7314C154.703 30.4873 154.6 30.1406 154.6 29.6914V26.415H153.638V25.7168H154.6V24.4375H155.503ZM160.263 26.5273C160.126 26.5046 159.978 26.4932 159.819 26.4932C159.226 26.4932 158.824 26.7454 158.613 27.25V31H157.709V25.7168H158.588L158.603 26.3271C158.899 25.8551 159.319 25.6191 159.863 25.6191C160.038 25.6191 160.172 25.6419 160.263 25.6875V26.5273ZM163.074 29.6768L164.305 25.7168H165.272L163.148 31.8154C162.819 32.6943 162.296 33.1338 161.58 33.1338L161.409 33.1191L161.072 33.0557V32.3232L161.317 32.3428C161.623 32.3428 161.86 32.2809 162.03 32.1572C162.202 32.0335 162.344 31.8073 162.454 31.4785L162.655 30.9414L160.77 25.7168H161.756L163.074 29.6768ZM165.734 30.5264C165.734 30.3701 165.78 30.2399 165.871 30.1357C165.966 30.0316 166.106 29.9795 166.291 29.9795C166.477 29.9795 166.617 30.0316 166.711 30.1357C166.809 30.2399 166.857 30.3701 166.857 30.5264C166.857 30.6761 166.809 30.8014 166.711 30.9023C166.617 31.0033 166.477 31.0537 166.291 31.0537C166.106 31.0537 165.966 31.0033 165.871 30.9023C165.78 30.8014 165.734 30.6761 165.734 30.5264ZM171.172 30.5264C171.172 30.3701 171.217 30.2399 171.308 30.1357C171.403 30.0316 171.543 29.9795 171.728 29.9795C171.914 29.9795 172.054 30.0316 172.148 30.1357C172.246 30.2399 172.295 30.3701 172.295 30.5264C172.295 30.6761 172.246 30.8014 172.148 30.9023C172.054 31.0033 171.914 31.0537 171.728 31.0537C171.543 31.0537 171.403 31.0033 171.308 30.9023C171.217 30.8014 171.172 30.6761 171.172 30.5264Z" fill="white" />
</svg>
